PathFileType	4	(X/Y/Z)	C:\Users\86182\Documents\cortex\Trimmed_M3_L3.trc
DataRate	CameraRate	NumFrames	NumMarkers	Units	OrigDataRate	OrigDataStartFrame	OrigNumFrames
100.00	100.00	       140	2	mm	100.00	721	       901
Frame#	Time	gripper			box			
		X1	Y1	Z1	X2	Y2	Z2	

721	7.200	273.48569	149.79849	292.87875	274.80939	148.06900	157.14273	
722	7.210	273.50024	149.80429	292.88614	274.80573	148.06506	157.14966	
723	7.220	273.47031	149.81355	292.88785	274.81451	148.06070	157.14847	
724	7.230	273.48145	149.80731	292.88977	274.80789	148.05962	157.15427	
725	7.240	273.40442	149.81334	292.89325	274.78769	148.07550	157.15050	
726	7.250	273.41397	149.81311	292.88290	274.77957	148.07378	157.15804	
727	7.260	273.43005	149.80002	292.88327	274.77673	148.07663	157.15680	
728	7.270	273.37506	149.81985	292.88998	274.80795	148.07256	157.13976	
729	7.280	273.44543	149.79916	292.87863	274.77310	148.07700	157.15891	
730	7.290	273.44540	149.79970	292.88217	274.77957	148.07378	157.15804	
731	7.300	273.41479	149.80949	292.87918	274.78387	148.07161	157.15747	
732	7.310	273.39932	149.80946	292.88950	274.79926	148.07260	157.14572	
733	7.320	273.46411	149.79369	292.87018	274.85220	148.06883	157.11330	
734	7.330	273.43069	149.80420	292.87656	274.83026	148.06857	157.12878	
735	7.340	273.45728	149.79660	292.87036	274.80939	148.07326	157.13799	
736	7.350	273.45270	149.79854	292.87048	274.83517	148.07184	157.12640	
737	7.360	273.48810	149.79947	292.88000	274.78604	148.07054	157.15718	
738	7.370	273.47598	149.79466	292.87378	274.80716	148.06578	157.14786	
739	7.380	273.48087	149.79659	292.87628	274.79337	148.06978	157.15295	
740	7.390	273.47598	149.79466	292.87378	274.78445	148.07745	157.16931	
741	7.400	273.48087	149.79659	292.87628	274.78818	148.06946	157.15689	
742	7.410	273.48984	149.81094	292.89584	274.79483	148.07050	157.15114	
743	7.420	273.47672	149.80785	292.89212	274.83463	148.06641	157.12817	
744	7.430	273.43622	149.80162	292.88107	274.82104	148.06178	157.14275	
745	7.440	273.44095	149.80057	292.87521	274.78769	148.07550	157.15050	
746	7.450	273.41949	149.80898	292.87686	274.80222	148.07399	157.14214	
747	7.460	273.42441	149.80983	292.87231	274.80722	148.07007	157.14304	
748	7.470	273.42639	149.80751	292.87448	274.78040	148.07625	157.15469	
749	7.480	273.43640	149.80249	292.87534	274.77310	148.07700	157.15891	
750	7.490	273.43991	149.80174	292.87411	274.80063	148.06905	157.14874	
751	7.500	273.42456	149.80310	292.88226	274.78320	148.07339	157.15594	
752	7.510	273.47159	149.80151	292.88358	274.81659	148.07251	157.13383	
753	7.520	273.47842	149.79562	292.87503	274.84641	148.05922	157.12807	
754	7.530	273.45602	149.79637	292.87149	274.78171	148.07269	157.15775	
755	7.540	273.46866	149.79173	292.87006	274.84641	148.05922	157.12807	
756	7.550	273.44757	149.79626	292.87729	274.84235	148.05266	157.13821	
757	7.560	273.45251	149.79713	292.87271	274.83777	148.05922	157.13403	
758	7.570	273.45935	149.79422	292.87253	274.80792	148.06830	157.14453	
759	7.580	273.44818	149.80046	292.87057	274.87057	148.05850	157.11215	
760	7.590	273.46231	149.80049	292.87411	274.83755	148.06355	157.12933	
761	7.600	273.44690	149.80025	292.87173	274.82813	148.06963	157.12909	
762	7.610	273.45728	149.79660	292.87036	274.80939	148.07326	157.13799	
763	7.620	273.46246	149.80243	292.87543	274.82819	148.06537	157.13379	
764	7.630	273.43378	149.80064	292.87985	274.83319	148.06572	157.12994	
765	7.640	273.44138	149.80336	292.87076	274.79993	148.07379	157.14861	
766	7.650	273.46198	149.79660	292.87152	274.79132	148.07512	157.14841	
767	7.660	273.44366	149.80238	292.87070	274.81659	148.07251	157.13383	
768	7.670	273.42419	149.80846	292.87451	274.79037	148.06837	157.15660	
769	7.680	273.43417	149.80345	292.87540	274.78818	148.06946	157.15689	
770	7.690	273.41336	149.80789	292.88254	274.79898	148.07115	157.14877	
771	7.700	273.46866	149.79173	292.87006	274.80646	148.06758	157.14633	
772	7.710	273.46533	149.80916	292.88055	274.77524	148.07593	157.15862	
773	7.720	273.45706	149.79520	292.87259	274.79337	148.06978	157.15295	
774	7.730	273.42004	149.80504	292.88239	274.79620	148.06691	157.15419	
775	7.740	273.46866	149.79173	292.87006	274.83243	148.06749	157.12848	
776	7.750	273.46866	149.79173	292.87006	274.83463	148.06641	157.12817	
777	7.760	273.47125	149.79463	292.87259	274.85001	148.05885	157.12599	
778	7.770	273.48810	149.79947	292.88000	274.82898	148.06357	157.13525	
779	7.780	273.44589	149.80144	292.87064	274.84537	148.06532	157.12198	
780	7.790	273.46640	149.79271	292.87012	274.83447	148.07066	157.12352	
781	7.800	273.45728	149.79660	292.87036	274.82391	148.06323	157.13913	
782	7.810	273.39413	149.81390	292.88629	274.81299	148.07288	157.13591	
783	7.820	273.46411	149.79369	292.87018	274.80289	148.07222	157.14363	
784	7.830	273.43030	149.80139	292.88101	274.78769	148.07550	157.15050	
785	7.840	273.38925	149.81303	292.89081	274.78818	148.06946	157.15689	
786	7.850	273.39694	149.82138	292.90759	274.78387	148.07161	157.15747	
787	7.860	273.40317	149.81256	292.89087	274.79257	148.06726	157.15631	
788	7.870	273.37433	149.81575	292.89664	274.77881	148.07278	157.15965	
789	7.880	273.42969	149.81050	292.89789	274.78604	148.07054	157.15718	
790	7.890	273.41476	149.81113	292.88971	274.80142	148.08247	157.13690	
791	7.900	273.45828	149.79541	292.87143	274.80426	148.06868	157.14664	
792	7.910	273.46704	149.80048	292.87531	274.77673	148.07663	157.15680	
793	7.920	273.44016	149.80313	292.87189	274.81299	148.07288	157.13591	
794	7.930	273.44818	149.80046	292.87057	274.83102	148.06679	157.13023	
795	7.940	273.47415	149.80144	292.87772	274.83743	148.06783	157.12466	
796	7.950	273.48160	149.80627	292.88275	274.84894	148.06496	157.11990	
797	7.960	273.45288	149.80046	292.87177	274.83899	148.06427	157.12755	
798	7.970	273.48087	149.79659	292.87628	274.79855	148.07437	157.14423	
799	7.980	273.46268	149.81085	292.89694	274.82611	148.06213	157.13882	
800	7.990	273.46030	149.80991	292.89569	274.85883	148.05450	157.12474	
801	8.000	273.44873	149.81085	292.89337	274.79471	148.06619	157.15604	
802	8.010	273.41840	149.81337	292.89685	274.78320	148.07339	157.15594	
803	8.020	273.38257	149.81587	292.90823	274.79117	148.07088	157.15326	
804	8.030	273.42007	149.82146	292.91354	274.77444	148.07939	157.16470	
805	8.040	273.36642	149.82365	292.90295	274.79562	148.07593	157.14920	
806	8.050	273.38843	149.82707	292.90903	274.76840	148.09155	157.15219	
807	8.060	273.40244	149.81509	292.88757	274.76340	148.10628	157.14552	
808	8.070	273.35257	149.82355	292.89938	274.81274	148.07571	157.13417	
809	8.080	273.39270	149.81230	292.88962	274.78769	148.07550	157.15050	
810	8.090	273.42822	149.80376	292.87888	274.80853	148.07838	157.15161	
811	8.100	273.41882	149.80534	292.88702	274.78256	148.07518	157.15440	
812	8.110	273.43527	149.80635	292.89185	274.82883	148.06787	157.13055	
813	8.120	273.44757	149.79626	292.87729	274.78903	148.07790	157.15628	
814	8.130	273.43784	149.80922	292.89438	274.82541	148.06279	157.14799	
815	8.140	273.44403	149.79701	292.87848	274.79990	148.06088	157.15839	
816	8.150	273.47513	149.80077	292.88235	274.81012	148.06721	157.14423	
817	8.160	273.49057	149.80045	292.88123	274.83325	148.06439	157.13606	
818	8.170	273.44553	149.79863	292.87509	274.80646	148.06758	157.14633	
819	8.180	273.48962	149.80411	292.88495	274.80496	148.07285	157.15091	
820	8.190	273.44238	149.80219	292.87186	274.82813	148.06963	157.12909	
821	8.200	273.42419	149.80846	292.87451	274.82669	148.06894	157.13086	
822	8.210	273.44464	149.80174	292.87531	274.85522	148.06599	157.11440	
823	8.220	273.42477	149.80450	292.88004	274.81659	148.07251	157.13383	
824	8.230	273.43826	149.79874	292.87973	274.78769	148.07550	157.15050	
825	8.240	273.42722	149.80547	292.88129	274.79630	148.07120	157.14932	
826	8.250	273.36975	149.82288	292.88901	274.79132	148.07512	157.14841	
827	8.260	273.42841	149.80569	292.88016	274.77310	148.07700	157.15891	
828	8.270	273.38074	149.83839	292.91428	274.76154	148.07738	157.16647	
829	8.280	273.39258	149.82326	292.90768	274.77310	148.07700	157.15891	
830	8.290	273.42395	149.80707	292.87674	274.77310	148.07700	157.15891	
831	8.300	273.41190	149.81975	292.90875	274.79132	148.07512	157.14841	
832	8.310	273.44095	149.80057	292.87521	274.78769	148.07550	157.15050	
833	8.320	273.46515	149.79250	292.87128	274.77310	148.07700	157.15891	
834	8.330	273.45242	149.79819	292.87976	274.82535	148.06393	157.13736	
835	8.340	273.45969	149.79756	292.87158	274.84479	148.06282	157.12515	
836	8.350	273.48859	149.80530	292.88385	274.82959	148.06609	157.13203	
837	8.360	273.49780	149.80333	292.88492	274.83258	148.06322	157.13318	
838	8.370	273.43396	149.80206	292.87762	274.88211	148.05562	157.10741	
839	8.380	273.49707	149.81383	292.89954	274.83801	148.07030	157.12149	
840	8.390	273.49820	149.80913	292.88879	274.84879	148.07123	157.13641	
841	8.400	273.44403	149.79701	292.87848	274.83090	148.07103	157.12558	
842	8.410	273.44803	149.82957	292.90845	274.82019	148.07214	157.13176	
843	8.420	273.40366	149.81694	292.89697	274.80939	148.07326	157.13799	
844	8.430	273.36975	149.82288	292.88901	274.80582	148.07362	157.14005	
845	8.440	273.43134	149.82532	292.90463	274.78171	148.07269	157.15775	
846	8.450	273.40598	149.80659	292.88934	274.78461	148.06854	157.16040	
847	8.460	273.41068	149.80608	292.88702	274.77310	148.07700	157.15891	
848	8.470	273.39572	149.82062	292.90524	274.77673	148.07663	157.15680	
849	8.480	273.41168	149.80490	292.88812	274.77737	148.07486	157.15834	
850	8.490	273.40442	149.81171	292.88275	274.79132	148.07512	157.14841	
851	8.500	273.41153	149.82610	292.90799	274.81299	148.07288	157.13591	
852	8.510	273.41110	149.80885	292.88260	274.82019	148.07214	157.13176	
853	8.520	273.46838	149.80316	292.87900	274.83401	148.06392	157.13138	
854	8.530	273.47415	149.81665	292.88919	274.83444	148.07236	157.13107	
855	8.540	273.45123	149.79692	292.87387	274.83435	148.07695	157.14001	
856	8.550	273.48389	149.80531	292.88269	274.80582	148.07362	157.14005	
857	8.560	273.47351	149.79367	292.87256	274.82376	148.07176	157.12970	
858	8.570	273.46136	149.81688	292.88455	274.82376	148.07176	157.12970	
859	8.580	273.46082	149.79939	292.88107	274.81580	148.07468	157.14607	
860	8.590	273.48859	149.80530	292.88385	274.80127	148.07913	157.15579	
